<svg width="48" height="48" viewBox="0 0 48 48" fill="none" xmlns="http://www.w3.org/2000/svg">
<path d="M25.0435 24H33.3913V40.6957H25.0435V24Z" fill="#20B2AA"/>
<path d="M45.913 40.6957V17.7391H2.08696V40.6957H12.5217V22.9565C12.5217 22.6798 12.6317 22.4144 12.8274 22.2187C13.0231 22.023 13.2885 21.913 13.5652 21.913H34.4348C34.7115 21.913 34.9769 22.023 35.1726 22.2187C35.3683 22.4144 35.4783 22.6798 35.4783 22.9565V40.6957H45.913Z" fill="#20B2AA"/>
<path d="M14.6087 24H22.9565V40.6957H14.6087V24ZM45.913 10.4348H32.3478V2.08696C32.3473 1.53363 32.1272 1.00313 31.736 0.611866C31.3447 0.220605 30.8142 0.000552497 30.2609 0H17.7391C17.1858 0.000552497 16.6553 0.220605 16.264 0.611866C15.8728 1.00313 15.6527 1.53363 15.6522 2.08696V10.4348H2.08696C1.53363 10.4353 1.00313 10.6554 0.611866 11.0466C0.220605 11.4379 0.000552497 11.9684 0 12.5217V13.5652C0.000552497 14.1185 0.220605 14.649 0.611866 15.0403C1.00313 15.4316 1.53363 15.6516 2.08696 15.6522H45.913C46.4664 15.6516 46.9969 15.4316 47.3881 15.0403C47.7794 14.649 47.9995 14.1185 48 13.5652V12.5217C47.9995 11.9684 47.7794 11.4379 47.3881 11.0466C46.9969 10.6554 46.4664 10.4353 45.913 10.4348ZM27.1304 8.34783H25.0435V10.4348C25.0435 10.7115 24.9335 10.9769 24.7379 11.1726C24.5422 11.3683 24.2767 11.4783 24 11.4783C23.7233 11.4783 23.4578 11.3683 23.2621 11.1726C23.0665 10.9769 22.9565 10.7115 22.9565 10.4348V8.34783H20.8696C20.5928 8.34783 20.3274 8.23789 20.1317 8.0422C19.936 7.84651 19.8261 7.5811 19.8261 7.30435C19.8261 7.0276 19.936 6.76219 20.1317 6.5665C20.3274 6.37081 20.5928 6.26087 20.8696 6.26087H22.9565V4.17391C22.9565 3.89717 23.0665 3.63175 23.2621 3.43606C23.4578 3.24037 23.7233 3.13043 24 3.13043C24.2767 3.13043 24.5422 3.24037 24.7379 3.43606C24.9335 3.63175 25.0435 3.89717 25.0435 4.17391V6.26087H27.1304C27.4072 6.26087 27.6726 6.37081 27.8683 6.5665C28.064 6.76219 28.1739 7.0276 28.1739 7.30435C28.1739 7.5811 28.064 7.84651 27.8683 8.0422C27.6726 8.23789 27.4072 8.34783 27.1304 8.34783ZM46.9565 42.7826H1.04348C0.766731 42.7826 0.501318 42.8925 0.305628 43.0882C0.109938 43.2839 0 43.5493 0 43.8261V44.8696C0.000828746 45.6996 0.330908 46.4953 0.917799 47.0822C1.50469 47.6691 2.30045 47.9992 3.13043 48H44.8696C45.6996 47.9992 46.4953 47.6691 47.0822 47.0822C47.6691 46.4953 47.9992 45.6996 48 44.8696V43.8261C48 43.5493 47.8901 43.2839 47.6944 43.0882C47.4987 42.8925 47.2333 42.7826 46.9565 42.7826Z" fill="#20B2AA"/>
</svg>
